<svg display="block" role="presentation" viewBox="0 0 24 24" xmlns="http://www.w3.org/2000/svg" id="4128920373"><path d="M 0 3 C 0 1.343 1.343 0 3 0 C 4.657 0 6 1.343 6 3 C 6 4.657 4.657 6 3 6 C 1.343 6 0 4.657 0 3 Z" fill-opacity="var(--1m6trwb, 0)" fill="var(--21h8s6, rgb(0, 0, 0))" height="6px" id="jOVwMWqOE" transform="translate(9 7.5)" width="6px"/><path d="M 0 0 L 3.375 0 L 3.375 3.375" fill="transparent" height="3.375px" id="Sc_lvRmtd" stroke-dasharray="" stroke-linecap="round" stroke-linejoin="round" stroke-width="var(--pgex8v, 1.5)" stroke="var(--21h8s6, rgb(0, 0, 0))" transform="translate(16.875 3.75)" width="3.375px"/><path d="M 0 3.375 L 3.375 3.375 L 3.375 0" fill="transparent" height="3.375px" id="uY5xKoxSW" stroke-dasharray="" stroke-linecap="round" stroke-linejoin="round" stroke-width="var(--pgex8v, 1.5)" stroke="var(--21h8s6, rgb(0, 0, 0))" transform="translate(16.875 16.875)" width="3.375px"/><path d="M 3.375 3.375 L 0 3.375 L 0 0" fill="transparent" height="3.375px" id="jFAqhvVNI" stroke-dasharray="" stroke-linecap="round" stroke-linejoin="round" stroke-width="var(--pgex8v, 1.5)" stroke="var(--21h8s6, rgb(0, 0, 0))" transform="translate(3.75 16.875)" width="3.375px"/><path d="M 3.375 0 L 0 0 L 0 3.375" fill="transparent" height="3.375px" id="akXBKapaV" stroke-dasharray="" stroke-linecap="round" stroke-linejoin="round" stroke-width="var(--pgex8v, 1.5)" stroke="var(--21h8s6, rgb(0, 0, 0))" transform="translate(3.75 3.75)" width="3.375px"/><path d="M 0 3 C 0 1.343 1.343 0 3 0 C 4.657 0 6 1.343 6 3 C 6 4.657 4.657 6 3 6 C 1.343 6 0 4.657 0 3 Z" fill="transparent" height="6px" id="FuiANUKXv" stroke-dasharray="" stroke-linecap="round" stroke-linejoin="round" stroke-width="var(--pgex8v, 1.5)" stroke="var(--21h8s6, rgb(0, 0, 0))" transform="translate(9 7.5)" width="6px"/><path d="M 0 2.25 C 1.062 0.834 2.729 0 4.5 0 C 6.271 0 7.938 0.834 9 2.25" fill="transparent" height="2.25px" id="QPUzbP_h_" stroke-dasharray="" stroke-linecap="round" stroke-linejoin="round" stroke-width="var(--pgex8v, 1.5)" stroke="var(--21h8s6, rgb(0, 0, 0))" transform="translate(7.5 13.5)" width="9px"/></svg>