<svg xmlns="http://www.w3.org/2000/svg" viewBox="0 0 39.815 35.429" overflow="visible" id="svg867814280_690"><path d="M 0 18.558 C 0 12.484 1.35 8.098 4.049 5.23 C 6.748 2.362 10.122 0.675 14.171 0 L 14.171 6.411 C 12.147 7.254 10.629 8.604 9.448 10.46 C 8.267 12.316 7.761 15.015 7.761 18.558 L 14.34 18.558 L 14.34 35.429 L 0 35.429 Z M 25.475 18.558 C 25.475 12.484 26.824 8.098 29.524 5.23 C 32.223 2.362 35.597 0.675 39.646 0 L 39.646 6.411 C 37.622 7.254 36.103 8.604 34.922 10.46 C 33.741 12.316 33.235 15.015 33.235 18.558 L 39.815 18.558 L 39.815 35.429 L 25.475 35.429 Z" fill="var(--token-57fdb807-4741-487b-8706-a0ef8f4fa1b0, rgb(221, 36, 0))"/></svg>