<svg display="block" role="presentation" viewBox="0 0 24 24" xmlns="http://www.w3.org/2000/svg" id="25858590"><path d="M 0 0 L 0 16.5" fill="transparent" height="16.5px" id="ds34b_FrZ" stroke-dasharray="" stroke-linecap="round" stroke-linejoin="round" stroke-width="var(--pgex8v, 1.5)" stroke="var(--21h8s6, rgb(0, 0, 0))" transform="translate(12 3.75)" width="1px"/><path d="M 7.5 0 L 0 0" fill="transparent" height="1px" id="pUTQ9Vj89" stroke-dasharray="" stroke-linecap="round" stroke-linejoin="round" stroke-width="var(--pgex8v, 1.5)" stroke="var(--21h8s6, rgb(0, 0, 0))" transform="translate(1.5 12)" width="7.5px"/><path d="M 3 6 L 0 3 L 3 0" fill="transparent" height="6px" id="fhUBXV8XU" stroke-dasharray="" stroke-linecap="round" stroke-linejoin="round" stroke-width="var(--pgex8v, 1.5)" stroke="var(--21h8s6, rgb(0, 0, 0))" transform="translate(1.5 9)" width="3px"/><path d="M 0 0 L 7.5 0" fill="transparent" height="1px" id="SVqT7GAv4" stroke-dasharray="" stroke-linecap="round" stroke-linejoin="round" stroke-width="var(--pgex8v, 1.5)" stroke="var(--21h8s6, rgb(0, 0, 0))" transform="translate(15 12)" width="7.5px"/><path d="M 0 0 L 3 3 L 0 6" fill="transparent" height="6px" id="ogxban8MV" stroke-dasharray="" stroke-linecap="round" stroke-linejoin="round" stroke-width="var(--pgex8v, 1.5)" stroke="var(--21h8s6, rgb(0, 0, 0))" transform="translate(19.5 9)" width="3px"/><path d="M 1.5 16.5 C 0.672 16.5 0 15.828 0 15 L 0 1.5 C 0 0.672 0.672 0 1.5 0 L 19.5 0 C 20.328 0 21 0.672 21 1.5 L 21 15 C 21 15.828 20.328 16.5 19.5 16.5 Z" fill-opacity="var(--1m6trwb, 0)" fill="var(--21h8s6, rgb(0, 0, 0))" height="16.5px" id="wsDYapKe0" transform="translate(1.5 3.75)" width="21px"/></svg>