<svg display="block" role="presentation" viewBox="0 0 24 24" xmlns="http://www.w3.org/2000/svg" id="2883338743"><path d="M 0 9 C 0 4.029 4.029 0 9 0 C 13.971 0 18 4.029 18 9 C 18 13.971 13.971 18 9 18 C 4.029 18 0 13.971 0 9 Z" fill-opacity="var(--1m6trwb, 0)" fill="var(--21h8s6, rgb(0, 0, 0))" height="18px" id="M2umBpORv" transform="translate(3 3)" width="18px"/><path d="M 0 3 L 2.25 5.25 L 7.5 0" fill="transparent" height="5.25px" id="SKKzYtdWd" stroke-dasharray="" stroke-linecap="round" stroke-linejoin="round" stroke-width="var(--pgex8v, 1.5)" stroke="var(--21h8s6, rgb(0, 0, 0))" transform="translate(8.25 9.75)" width="7.5px"/><path d="M 0 9 C 0 4.029 4.029 0 9 0 C 13.971 0 18 4.029 18 9 C 18 13.971 13.971 18 9 18 C 4.029 18 0 13.971 0 9 Z" fill="transparent" height="18px" id="Ub0giwiXO" stroke-dasharray="" stroke-linecap="round" stroke-linejoin="round" stroke-width="var(--pgex8v, 1.5)" stroke="var(--21h8s6, rgb(0, 0, 0))" transform="translate(3 3)" width="18px"/></svg>