<svg display="block" role="presentation" viewBox="0 0 24 24" xmlns="http://www.w3.org/2000/svg"><path d="M 4.493 16.79 C 8.403 19.053 13.386 18.066 16.138 14.483 C 18.891 10.9 18.56 5.831 15.365 2.636 C 12.17 -0.559 7.101 -0.89 3.518 1.863 C -0.065 4.615 -1.052 9.598 1.211 13.508 L 1.211 13.508 L 0.039 17.01 C -0.051 17.279 0.019 17.577 0.22 17.777 C 0.421 17.978 0.718 18.049 0.987 17.959 Z" fill-opacity="var(--1m6trwb, 0)" fill="var(--21h8s6, rgb(0, 0, 0))" height="18.00072584206196px" id="qdN2zWASo" transform="translate(3.001 3.002)" width="18.000910893351044px"/><path d="M 0 3 L 3 0 L 6 3 L 9 0" fill="transparent" height="3px" id="b0wnRah33" stroke-dasharray="" stroke-linecap="round" stroke-linejoin="round" stroke-width="var(--pgex8v, 1.5)" stroke="var(--21h8s6, rgb(0, 0, 0))" transform="translate(7.5 10.5)" width="9px"/><path d="M 4.493 16.79 C 8.403 19.053 13.386 18.066 16.138 14.483 C 18.891 10.9 18.56 5.831 15.365 2.636 C 12.17 -0.559 7.101 -0.89 3.518 1.863 C -0.065 4.615 -1.052 9.598 1.211 13.508 L 1.211 13.508 L 0.039 17.01 C -0.051 17.279 0.019 17.577 0.22 17.777 C 0.421 17.978 0.718 18.049 0.987 17.959 Z" fill="transparent" height="18.00072584206196px" id="pkl5m72jt" stroke-dasharray="" stroke-linecap="round" stroke-linejoin="round" stroke-width="var(--pgex8v, 1.5)" stroke="var(--21h8s6, rgb(0, 0, 0))" transform="translate(3.001 3.002)" width="18.000910893351044px"/></svg>