<svg xmlns="http://www.w3.org/2000/svg" viewBox="0 0 39.815 35.429" overflow="visible" id="svg1414140545_697"><path d="M 39.815 16.871 C 39.815 22.944 38.465 27.331 35.766 30.199 C 33.067 33.067 29.693 34.754 25.644 35.429 L 25.644 29.018 C 27.668 28.174 29.186 26.824 30.367 24.969 C 31.548 23.113 32.054 20.414 32.054 16.871 L 25.475 16.871 L 25.475 0 L 39.815 0 Z M 14.34 16.871 C 14.34 22.944 12.99 27.331 10.291 30.199 C 7.592 33.067 4.218 34.754 0.169 35.429 L 0.169 29.018 C 2.193 28.174 3.712 26.824 4.893 24.969 C 6.073 23.113 6.58 20.414 6.58 16.871 L 0 16.871 L 0 0 L 14.34 0 Z" fill="var(--token-57fdb807-4741-487b-8706-a0ef8f4fa1b0, rgb(221, 36, 0))"/></svg>